<svg xmlns="http://www.w3.org/2000/svg" viewBox="0 0 100 100"><g id="Layer_1" data-name="Layer 1"><path d="M44.92,23h0l1.18.05h.07l1.18,0h5.26l1.18,0h.07L55.06,23h0c6.52-.29,11.24-1.41,11.24-5.21a5.21,5.21,0,0,0,0-.55,1.08,1.08,0,0,1,0-.19c0-.12,0-.25-.07-.38l-.06-.23L66,16.11,66,15.86c0-.11-.08-.23-.13-.34s-.07-.18-.11-.27l-.15-.34c0-.09-.1-.18-.14-.27s-.12-.22-.19-.33L65.07,14l-.21-.33-.19-.28-.11-.16h0c-.08-.11-.15-.22-.24-.33a4.68,4.68,0,0,1-.09.54A15.52,15.52,0,0,1,63.5,16c-.12.32-.23.58-.31.76L63.1,17l0,.06h0a.83.83,0,0,1-.6.43c-.05,0-.11,0-.15-.07a.8.8,0,0,1-.17-1.14,5.29,5.29,0,0,0,.64-4.15,7.79,7.79,0,0,0,0-1.08,12.73,12.73,0,0,0-1.63-3h0l0,0-.23-.3-.22-.28c-.11-.14-.22-.27-.34-.4a2.75,2.75,0,0,0-.22-.26c-.13-.15-.27-.29-.41-.43l-.19-.21c-.21-.21-.43-.41-.65-.61h0V8.06a1.49,1.49,0,0,1-3,0V3.46h0a13.24,13.24,0,0,0-3.28-1.25A11,11,0,0,0,51.48,2V5.09a1.48,1.48,0,1,1-3,0V2a11,11,0,0,0-1.17.21,13.24,13.24,0,0,0-3.28,1.25h0v4.6a1.49,1.49,0,0,1-3,0V5.54h0c-.22.2-.44.4-.65.61l-.2.21c-.13.14-.27.28-.4.43a2.75,2.75,0,0,0-.22.26c-.12.13-.23.26-.34.4l-.22.28-.23.3,0,0h0a12.73,12.73,0,0,0-1.63,3,7.79,7.79,0,0,0,0,1.08,5.29,5.29,0,0,0,.64,4.15.8.8,0,0,1-.17,1.14s-.1,0-.15.07a.83.83,0,0,1-.6-.43h0l0-.06-.09-.21c-.08-.18-.19-.44-.31-.76a15.52,15.52,0,0,1-.73-2.53,4.68,4.68,0,0,1-.09-.54c-.09.11-.16.22-.24.33h0l-.11.16-.19.28-.21.33c-.06.09-.11.19-.16.28a3.72,3.72,0,0,0-.19.34c0,.09-.09.17-.14.26l-.15.34c0,.09-.08.18-.11.27s-.09.23-.13.34l-.09.25-.09.35-.06.23c0,.13-.05.26-.07.39a1.13,1.13,0,0,1,0,.18,5.21,5.21,0,0,0,0,.55C33.68,21.61,38.4,22.73,44.92,23Z"/><path d="M50,36A13.35,13.35,0,0,0,63.31,23.6C59.49,25,54.14,25,50,25s-9.49,0-13.31-1.35A13.35,13.35,0,0,0,50,36Z"/><path d="M64.86,45.58a1.48,1.48,0,1,1-3,0V43.06c-.22.2-.44.4-.65.61l-.2.21c-.13.14-.27.28-.4.43a2.75,2.75,0,0,0-.22.26l-.34.39-.22.29-.23.3,0,0h0a12.78,12.78,0,0,0-1.64,3,7.8,7.8,0,0,0,0,1.08,5.21,5.21,0,0,0,.64,4.15.82.82,0,0,1-.17,1.14l-.16.07a.83.83,0,0,1-.59-.43h0l0-.06-.09-.21c-.08-.18-.19-.44-.31-.76A14.58,14.58,0,0,1,56.57,51c0-.18-.07-.36-.1-.54-.08.11-.15.22-.23.32h0c0,.06-.07.12-.11.17a2.75,2.75,0,0,0-.19.28l-.21.33a2.54,2.54,0,0,0-.16.28c-.07.11-.13.22-.19.33l-.14.27-.15.34L55,53l-.12.34-.09.25c0,.12-.06.24-.09.35s-.05.16-.06.23,0,.26-.07.38l0,.19a5.21,5.21,0,0,0,0,.55c0,3.8,4.72,4.92,11.24,5.21h0l1.19.05H67l1.18,0h5.26l1.18,0h.06l1.19-.05h0c6.52-.29,11.24-1.41,11.24-5.21a5.28,5.28,0,0,0,0-.55,1.48,1.48,0,0,0,0-.19c0-.12,0-.25-.06-.38L86.93,54c0-.12-.06-.23-.1-.35a2.41,2.41,0,0,0-.08-.25,3.42,3.42,0,0,0-.13-.34c0-.09-.07-.18-.11-.27l-.16-.34c0-.09-.09-.18-.14-.27a2.68,2.68,0,0,0-.18-.33c0-.1-.11-.19-.16-.28l-.21-.33-.19-.28s-.07-.11-.11-.17h0l-.24-.32L85,51a16.59,16.59,0,0,1-.73,2.53c-.12.32-.23.58-.31.76a2.17,2.17,0,0,1-.1.21l0,.06h0a.82.82,0,0,1-.59.43l-.16-.07a.82.82,0,0,1-.17-1.14,5.25,5.25,0,0,0,.65-4.15,7.79,7.79,0,0,0,0-1.08,12.73,12.73,0,0,0-1.63-3h0l0,0-.24-.3L81.51,45l-.34-.39L81,44.31c-.13-.15-.27-.29-.41-.43l-.2-.21c-.2-.21-.42-.41-.64-.61v2.52a1.49,1.49,0,0,1-3,0V41a13.22,13.22,0,0,0-3.28-1.24,11,11,0,0,0-1.17-.21v3.09a1.49,1.49,0,1,1-3,0V39.52q-.59.07-1.17.21A13.52,13.52,0,0,0,64.86,41Z"/><path d="M70.8,73.5A13.35,13.35,0,0,0,84.11,61.12c-3.82,1.34-9.17,1.35-13.31,1.35s-9.5,0-13.31-1.35A13.34,13.34,0,0,0,70.8,73.5Z"/><path d="M24.12,60.54h0l1.19.05h.06l1.18,0h5.26l1.18,0h.07l1.19-.05h0c3.8-.17,7-.62,9-1.72h0a5.07,5.07,0,0,0,.55-.34l0,0a4.14,4.14,0,0,0,.46-.37l.06-.06a2.5,2.5,0,0,0,.35-.38l.09-.11c.09-.12.17-.25.25-.38l.09-.19c.05-.12.11-.23.15-.35a3,3,0,0,0,.09-.32c0-.09.05-.18.07-.28a4.8,4.8,0,0,0,.05-.67,5.21,5.21,0,0,0,0-.55l0-.19c0-.12,0-.25-.07-.38s0-.15-.06-.23,0-.23-.09-.35l-.09-.25L45,53l-.12-.27-.15-.34-.14-.27c-.06-.11-.12-.22-.19-.33a2.54,2.54,0,0,0-.16-.28l-.21-.33a2.75,2.75,0,0,0-.19-.28s-.07-.11-.11-.17h0c-.08-.1-.15-.21-.23-.32,0,.18-.06.36-.1.54a14.58,14.58,0,0,1-.73,2.53c-.06.16-.11.3-.17.43s-.1.24-.14.33l-.09.21,0,.06h0a.83.83,0,0,1-.59.43l-.16-.07a.83.83,0,0,1-.32-.53.8.8,0,0,1,.15-.61A4.1,4.1,0,0,0,42,52.35a5.74,5.74,0,0,0,.08-2.15,5.25,5.25,0,0,0-.09-.55,7.8,7.8,0,0,0,0-1.08c-.12-.3-.25-.6-.4-.91l0-.09c-.15-.29-.31-.58-.48-.88h0a12.18,12.18,0,0,0-.72-1.1h0l0,0-.23-.3L39.91,45l-.34-.39a2.75,2.75,0,0,0-.22-.26c-.13-.15-.27-.29-.4-.43l-.2-.21c-.21-.21-.43-.41-.65-.61v2.52a1.48,1.48,0,0,1-3,0V41l-.79-.38a7.27,7.27,0,0,0-.81-.34,12.1,12.1,0,0,0-1.68-.52q-.59-.13-1.17-.21v3.09a1.49,1.49,0,1,1-3,0V39.52a11,11,0,0,0-1.17.21A13.22,13.22,0,0,0,23.27,41v4.61a1.49,1.49,0,0,1-3,0V43.06c-.22.2-.44.4-.64.61l-.2.21c-.14.14-.28.28-.41.43l-.22.26-.34.39-.21.29-.24.3,0,0h0a12.73,12.73,0,0,0-1.63,3,7.79,7.79,0,0,0,0,1.08,5.25,5.25,0,0,0,.65,4.15.82.82,0,0,1-.17,1.14l-.16.07a.82.82,0,0,1-.59-.43h0l0-.06a2.17,2.17,0,0,1-.1-.21c-.08-.18-.19-.44-.31-.76A16.59,16.59,0,0,1,15,51l-.09-.54-.24.32h0c0,.06-.07.12-.11.17l-.18.28-.22.33c-.05.09-.11.18-.16.28s-.13.22-.19.33l-.13.27-.16.34c0,.09-.08.18-.11.27s-.09.23-.13.34a2.41,2.41,0,0,0-.08.25c0,.12-.07.24-.1.35l-.06.23a2.71,2.71,0,0,0-.06.38,1.48,1.48,0,0,0,0,.19,5.28,5.28,0,0,0,0,.55C12.88,59.13,17.6,60.25,24.12,60.54Z"/><path d="M29.2,62.47c-4.14,0-9.49,0-13.31-1.35a13.34,13.34,0,0,0,26.62,0C38.7,62.46,33.34,62.47,29.2,62.47Z"/><path d="M55.9,97.5h0V87.24a5.22,5.22,0,0,0,0-.69,7.83,7.83,0,0,0-.16-1.17c0-.11-.05-.22-.08-.33a8.56,8.56,0,0,0-.23-.83l-.12-.34c-.1-.27-.22-.54-.34-.81l-.15-.29a7.61,7.61,0,0,0-.51-.87l-.11-.18c-2.39-3.54-7.24-6.18-14.39-6.44a1.54,1.54,0,0,0-.74,0H34.72a15.71,15.71,0,0,1-11,0H19.38a1.54,1.54,0,0,0-.74,0C8.48,75.65,3,80.82,2.54,86.55c0,.23,0,.45,0,.69V97.5H55.9Z"/><path d="M80.62,75.29H76.31a15.71,15.71,0,0,1-11,0H61a1.54,1.54,0,0,0-.74,0,24,24,0,0,0-8.14,1.62,12.78,12.78,0,0,1,5.77,9.47c0,.31,0,.59,0,.86V97.5H97.5V87.24c0-.24,0-.46,0-.69-.41-5.73-5.94-10.9-16.1-11.26A1.54,1.54,0,0,0,80.62,75.29Z"/><path d="M40,73.3a23.83,23.83,0,0,1,10.4,2.58,2,2,0,0,1,.94-.83A25.68,25.68,0,0,1,60,73.3a3.65,3.65,0,0,1,1.19,0h1.73a15.35,15.35,0,0,1-7.43-12,1.88,1.88,0,0,1,.12-.78,7.25,7.25,0,0,1-.79-.53l-.46-.36-.18-.19a3.31,3.31,0,0,1-.27-.26,5.39,5.39,0,0,1-1.4-3.29h0c0-.17,0-.34,0-.52a6.93,6.93,0,0,1,.05-.77c0-.08,0-.16,0-.26l.09-.51.06-.24,0-.09c0-.14.07-.28.11-.42l.09-.26,0-.07c0-.14.1-.28.16-.42s.07-.18.11-.27l0-.05c.06-.14.12-.28.19-.41a3.2,3.2,0,0,1,.16-.33c.07-.13.14-.27.22-.4l.19-.32.25-.4.24-.35.11-.15a.44.44,0,0,1,.08-.11,2.35,2.35,0,0,1,.19-.25c.28-.37,2.26-3.66,3.06-4.77l.07-.1.19-.26.08-.09.06-.08.18-.24.38-.45.06-.07.19-.22c.14-.16.29-.31.46-.48l.05-.06.17-.18c.23-.23.48-.46.73-.68a36.53,36.53,0,0,1,3.35-2.36,16.46,16.46,0,0,1,1.71-.79,26.57,26.57,0,0,0-5.07-.64,1.51,1.51,0,0,0-.73,0H55.52a15.88,15.88,0,0,1-11,0H40.17a1.51,1.51,0,0,0-.73,0,26.57,26.57,0,0,0-5.07.64,16.46,16.46,0,0,1,1.71.79,36.53,36.53,0,0,1,3.35,2.36c.25.22.5.45.73.68l.17.18.07.07c.15.16.3.31.44.47l.18.21.09.11.36.42.18.24.06.08.08.09.19.26.08.11c.79,1.11,2.77,4.39,3,4.76a2.35,2.35,0,0,1,.19.25.44.44,0,0,1,.08.11l.13.19a3.62,3.62,0,0,1,.22.32c.09.13.17.26.25.39l.19.32c.08.13.15.27.23.43s.11.2.16.3l.18.41,0,.05c0,.09.08.18.11.27s.11.28.16.43l0,.06.09.26c0,.14.08.28.12.45l0,0,.06.25c0,.17.06.33.09.53a2,2,0,0,1,0,.24,7.09,7.09,0,0,1,.05.77c0,.18,0,.35,0,.52h0a5.43,5.43,0,0,1-1.41,3.3l-.16.15-.3.3c-.11.1-.23.19-.35.28a7.58,7.58,0,0,1-.88.6,1.88,1.88,0,0,1,.12.78,15.35,15.35,0,0,1-7.43,12h1.74A3.89,3.89,0,0,1,40,73.3Z"/></g></svg>