<svg xmlns="http://www.w3.org/2000/svg" viewBox="0 0 100 100"><g id="Layer_1" data-name="Layer 1"><path d="M72.14,47.28c-.49,0-1,0-1.47,0A34.82,34.82,0,1,0,46.85,70.81,25.35,25.35,0,1,0,72.14,47.28Zm-30.21,5.2a4.78,4.78,0,1,1-9.55,0v-.11a4.78,4.78,0,0,1,9.55,0Zm.39-32.18L39.9,41.42a2.58,2.58,0,0,1-5.16,0L32.32,20.3c-.17-1.63.73-2.92,2.25-2.92h5.5C41.59,17.38,42.49,18.67,42.32,20.3ZM87.94,88.46A22.36,22.36,0,1,1,94.5,72.65,22.19,22.19,0,0,1,87.94,88.46Z"/><path d="M82.21,70.22H74.72V62.73a2.58,2.58,0,0,0-5.16,0v7.49H62.07a2.58,2.58,0,0,0,0,5.16h7.49v7.49a2.58,2.58,0,0,0,5.16,0V75.38h7.49a2.58,2.58,0,1,0,0-5.16Z"/></g></svg>