<svg xmlns="http://www.w3.org/2000/svg" viewBox="0 0 100 100"><g id="Layer_1" data-name="Layer 1"><path d="M55.88,85.75v5.87H73.83a1.67,1.67,0,0,0,1.64-1.7V54.15a1.68,1.68,0,0,0-1.64-1.71H55.88v5.85h5.93v4H55.88v3.89h5.87v3.91H55.88V74h5.87v3.92H55.88v3.92h5.87v3.92Zm7.83-27.43h7.84v3.92H63.71Zm0,7.84h7.84v3.91H63.71Zm0,7.83h7.84v3.92H63.71Zm0,7.84h7.84v3.92H63.71Z"/><path d="M24.53,91.84,53.92,97.5V46.57L24.53,52.22Zm6-29.7H36l2.84,6a11.06,11.06,0,0,1,.59,1.67h.06c.11-.38.31-1,.62-1.73l3.15-5.89h5L42.3,72l6.12,10h-5.3L39.7,75.52a5.68,5.68,0,0,1-.4-1.33h0a10.82,10.82,0,0,1-.46,1.39L35.36,82H30l6.33-9.92Z"/><polygon points="37.91 34.2 46.09 26.02 46.09 43.56 53.51 43.56 53.51 25.97 61.71 34.17 66.27 29.6 54.39 17.72 54.39 17.72 49.82 13.15 49.81 13.15 49.79 13.13 45.22 17.69 45.24 17.72 33.34 29.63 37.91 34.2"/><polygon points="9.34 9.37 90.58 9.37 90.58 21.91 97.46 21.91 97.46 2.49 90.58 2.49 90.58 2.49 34.83 2.49 34.83 2.49 2.46 2.49 2.46 21.91 9.34 21.91 9.34 9.37"/></g></svg>