<svg xmlns="http://www.w3.org/2000/svg" viewBox="0 0 100 100"><g id="Layer_1" data-name="Layer 1"><path d="M89.68,66.17l3-7.05-4.26-4.26-7,3c-.53-.24-1.12-.54-1.66-.77l-3-7H70.79l-3,7a8.35,8.35,0,0,0-1.66.77l-7.05-3-4.26,4.26,3,7.05a17.59,17.59,0,0,0-.77,1.66l-7,3v5.92l7,3a17.59,17.59,0,0,0,.77,1.66l-3,7,4.26,4.26,7.05-3c.53.24,1.07.54,1.66.77l3,7h5.92l3-7a16.5,16.5,0,0,0,1.66-.77l7,3,4.26-4.26-3-7c.24-.53.54-1.12.77-1.66l7-3V70.79l-7-3A9.89,9.89,0,0,0,89.68,66.17ZM73.75,82.57a8.88,8.88,0,1,1,8.88-8.88A8.86,8.86,0,0,1,73.75,82.57Z"/><path d="M91.23,2.5H8.77A6.29,6.29,0,0,0,2.5,8.8V73.39a6.28,6.28,0,0,0,6.27,6.29H42.16v9H31.8A4.27,4.27,0,0,0,27.54,93a4.52,4.52,0,0,0,4.51,4.53H67.53L65.7,93.13l-5.42,2.28a2.93,2.93,0,0,1-1.16.23A3,3,0,0,1,57,94.76L52.74,90.5a3,3,0,0,1-.65-3.28l2.28-5.42-5.53-2.32A3,3,0,0,1,47,76.71V70.79A3,3,0,0,1,48.84,68l5.53-2.32-2.28-5.42A3,3,0,0,1,52.74,57L57,52.74a3,3,0,0,1,2.12-.88,2.93,2.93,0,0,1,1.16.23l5.42,2.28L68,48.84A3,3,0,0,1,70.79,47h5.92a3,3,0,0,1,2.77,1.84l2.32,5.53,5.42-2.28a2.93,2.93,0,0,1,1.16-.23,3,3,0,0,1,2.12.88L94.76,57a3,3,0,0,1,.65,3.28L93.13,65.7l4.37,1.83V8.8A6.29,6.29,0,0,0,91.23,2.5ZM32.69,62.25A3.73,3.73,0,0,1,29,66H14a3.74,3.74,0,0,1-3.74-3.73v-15A3.74,3.74,0,0,1,14,43.56H29a3.73,3.73,0,0,1,3.73,3.74Zm0-28.78A3.73,3.73,0,0,1,29,37.21H14a3.74,3.74,0,0,1-3.74-3.74V18.52A3.74,3.74,0,0,1,14,14.79H29a3.73,3.73,0,0,1,3.73,3.73Zm28.52,0a3.73,3.73,0,0,1-3.74,3.74H42.53a3.73,3.73,0,0,1-3.74-3.74V18.52a3.73,3.73,0,0,1,3.74-3.73H57.47a3.73,3.73,0,0,1,3.74,3.73Zm28.52,0A3.74,3.74,0,0,1,86,37.21H71a3.73,3.73,0,0,1-3.73-3.74V18.52A3.73,3.73,0,0,1,71,14.79H86a3.74,3.74,0,0,1,3.74,3.73Z"/><path d="M27,19.91l-7.75,8.57L16,24.86a2,2,0,0,0-3,2.68l4.76,5.27a2,2,0,0,0,3,0L30,22.59a2,2,0,0,0-3-2.68Z"/><path d="M27,48.68l-7.75,8.58L16,53.63a2,2,0,0,0-3,2.69l4.76,5.26a2,2,0,0,0,3,0L30,51.37a2,2,0,1,0-3-2.69Z"/><path d="M55.52,19.91l-7.76,8.57-3.28-3.62a2,2,0,1,0-3,2.68l4.76,5.27a2,2,0,0,0,1.48.65,2,2,0,0,0,1.48-.65l9.24-10.22a2,2,0,0,0-3-2.68Z"/><path d="M84,19.91l-7.75,8.57L73,24.86a2,2,0,0,0-3,2.68l4.76,5.27a2,2,0,0,0,3,0L87,22.59a2,2,0,0,0-3-2.68Z"/></g></svg>