<svg xmlns="http://www.w3.org/2000/svg" viewBox="0 0 100 100"><g id="Layer_1" data-name="Layer 1"><rect x="2.52" y="2.5" width="94.98" height="17.04"/><path d="M2.5,97.5h95V24.29H2.5ZM38.31,39.08H85.79a2.37,2.37,0,0,1,2.4,2.41,2.34,2.34,0,0,1-2.38,2.4H38.31a2.41,2.41,0,0,1,0-4.81Zm0,18.25H85.79a2.41,2.41,0,0,1,0,4.81H38.31a2.41,2.41,0,0,1,0-4.81Zm0,18.16H85.79a2.37,2.37,0,0,1,2.4,2.41,2.34,2.34,0,0,1-2.38,2.4H38.31a2.41,2.41,0,0,1,0-4.81ZM14.19,33.64H25.13V46.3H14.19Zm0,19.75H25.13V66H14.19Zm0,19.76H25.13V85.73H14.19Z"/></g></svg>