<svg xmlns="http://www.w3.org/2000/svg" viewBox="0 0 100 100"><g id="Layer_1" data-name="Layer 1"><path d="M88.32,91.61V76.88c0-.33,0-.66,0-1-.59-8.23-8.53-15.65-23.11-16.16a2.24,2.24,0,0,0-1.06,0H57.92a22.65,22.65,0,0,1-15.84,0H35.9a2.24,2.24,0,0,0-1.06,0c-14.58.51-22.52,7.93-23.11,16.16,0,.32-.05.65-.05,1V91.61H31V76.44a2.25,2.25,0,0,1,1.48-2.14l.26-.06a.8.8,0,0,1,.15,0h.47a.8.8,0,0,1,.15,0l.26.06a2.25,2.25,0,0,1,1.48,2.14V91.61H64.78V76.44a2.25,2.25,0,0,1,1.48-2.14l.26-.06a.8.8,0,0,1,.15,0h.47a.8.8,0,0,1,.15,0l.26.06A2.25,2.25,0,0,1,69,76.44V91.61Z"/><path d="M29.57,24.86c0-.24-.09-.5-.13-.76-.12.15-.22.31-.33.46h0l-.17.24-.26.39c-.11.16-.21.32-.31.48s-.16.26-.23.39-.18.33-.27.49l-.2.39c-.08.16-.15.32-.22.48s-.11.26-.16.38-.13.33-.18.49-.09.24-.13.36-.09.34-.13.51-.07.22-.09.33-.06.37-.09.55,0,.18,0,.27a7,7,0,0,0-.05.79c0,5.45,6.77,7.05,16.13,7.47h0l1.71.06h.09l1.69,0h.07l1.69,0h4l1.69,0h.07l1.69,0h.09l1.71-.06h0c9.36-.42,16.13-2,16.13-7.47a7,7,0,0,0,0-.79c0-.09,0-.18,0-.27s0-.37-.09-.55-.06-.22-.09-.33-.08-.34-.13-.51l-.13-.36c0-.16-.11-.32-.18-.49s-.11-.25-.16-.38-.14-.32-.22-.48l-.2-.39c-.09-.16-.17-.32-.27-.49s-.15-.26-.23-.39-.2-.32-.31-.48l-.26-.39-.17-.24h0c-.11-.16-.21-.31-.33-.46,0,.26-.09.52-.13.76a22.47,22.47,0,0,1-1.05,3.64c-.17.46-.33.83-.45,1.09s-.1.23-.13.3l0,.08,0,0h0a1.16,1.16,0,0,1-.85.61.94.94,0,0,1-.23-.1,1.17,1.17,0,0,1-.24-1.64,7.5,7.5,0,0,0,.92-5.95,11.52,11.52,0,0,0,0-1.55,18.68,18.68,0,0,0-2.34-4.28h0s0,0,0-.05l-.34-.44c-.1-.13-.2-.27-.31-.4l-.48-.58-.32-.37c-.19-.21-.39-.41-.58-.61l-.29-.3c-.3-.3-.61-.59-.93-.88h0v3.62a2.13,2.13,0,1,1-4.25,0V10.48h0a18.86,18.86,0,0,0-4.71-1.79,15.52,15.52,0,0,0-1.68-.3v4.44a2.13,2.13,0,0,1-4.26,0V8.39a15.52,15.52,0,0,0-1.68.3,18.86,18.86,0,0,0-4.71,1.79h0v6.61a2.13,2.13,0,1,1-4.25,0V13.47h0c-.32.29-.63.58-.93.88l-.29.3c-.19.2-.39.4-.58.61s-.21.25-.32.38-.32.37-.48.57-.21.27-.31.4l-.34.44s0,0,0,.05h0a18.68,18.68,0,0,0-2.34,4.28,11.52,11.52,0,0,0,.05,1.55,7.5,7.5,0,0,0,.92,5.95,1.17,1.17,0,0,1-.24,1.64.94.94,0,0,1-.23.1,1.16,1.16,0,0,1-.85-.61h0l0,0,0-.08c0-.07-.08-.17-.13-.3s-.28-.63-.45-1.09A22.47,22.47,0,0,1,29.57,24.86Z"/><path d="M50,57.17A19.17,19.17,0,0,0,69.11,39.4C63.63,41.32,56,41.33,50,41.33s-13.63,0-19.11-1.93A19.17,19.17,0,0,0,50,57.17Z"/><polygon points="69.11 2.5 69.11 5.5 94.5 5.5 94.5 32.52 97.5 32.52 97.5 2.5 69.11 2.5"/><polygon points="5.5 5.5 30.89 5.5 30.89 2.5 2.5 2.5 2.5 32.52 5.5 32.52 5.5 5.5"/><polygon points="94.5 94.5 69.11 94.5 69.11 97.5 97.5 97.5 97.5 70.73 94.5 70.73 94.5 94.5"/><polygon points="30.89 94.5 5.5 94.5 5.5 70.73 2.5 70.73 2.5 97.5 30.89 97.5 30.89 94.5"/></g></svg>