<svg xmlns="http://www.w3.org/2000/svg" viewBox="0 0 100 100"><g id="Layer_1" data-name="Layer 1"><path d="M67.54,24.7a7,7,0,0,0-.05-.79c0-.09,0-.18,0-.27s-.06-.37-.1-.55,0-.22-.08-.33-.09-.34-.14-.51L67,21.89l-.18-.49L66.66,21c-.07-.16-.14-.32-.22-.48s-.13-.26-.2-.39L66,19.66l-.24-.39-.3-.48-.27-.39L65,18.16h0c-.11-.16-.22-.31-.34-.46,0,.26-.08.52-.13.76a22.47,22.47,0,0,1-1.05,3.64c-.17.46-.33.83-.44,1.09l-.14.3,0,.08v0h0a1.14,1.14,0,0,1-.85.61,1.07,1.07,0,0,1-.22-.1,1.18,1.18,0,0,1-.25-1.64,7.46,7.46,0,0,0,.93-5.95,11.52,11.52,0,0,0,0-1.55,18.73,18.73,0,0,0-2.35-4.28h0l0-.05-.34-.44c-.1-.13-.2-.27-.31-.4s-.32-.39-.48-.58l-.32-.37c-.19-.21-.38-.41-.58-.61L57.82,8c-.3-.3-.61-.59-.93-.88h0V10.7a2.13,2.13,0,0,1-4.26,0V4.09h0A18.86,18.86,0,0,0,47.92,2.3,15.52,15.52,0,0,0,46.24,2V6.44a2.13,2.13,0,1,1-4.25,0V2a16.16,16.16,0,0,0-1.69.3,18.94,18.94,0,0,0-4.7,1.79h0V10.7a2.13,2.13,0,0,1-4.26,0V7.08h0c-.32.29-.63.58-.93.88l-.28.3c-.2.2-.4.4-.58.61s-.22.25-.32.38a6.57,6.57,0,0,0-.48.57l-.32.4-.33.44,0,.05h0A18.68,18.68,0,0,0,25.72,15a11.52,11.52,0,0,0,.05,1.55,7.46,7.46,0,0,0,.93,5.95,1.18,1.18,0,0,1-.25,1.64,1.07,1.07,0,0,1-.22.1,1.14,1.14,0,0,1-.85-.61h0v0l0-.08-.14-.3c-.11-.26-.27-.63-.45-1.09a23.64,23.64,0,0,1-1-3.64c-.05-.24-.1-.5-.13-.76-.12.15-.23.3-.34.46h0l-.16.24-.27.39c-.11.16-.21.32-.31.48s-.15.26-.23.39l-.26.49c-.07.13-.14.26-.2.39l-.23.48c0,.13-.11.26-.16.38l-.18.49c0,.12-.09.24-.12.36a4.84,4.84,0,0,0-.14.51c0,.11-.06.22-.08.33s-.07.37-.1.55,0,.18,0,.27a7,7,0,0,0,0,.79c0,5.45,6.77,7.05,16.13,7.47h0l1.7.07h.1l1.69,0h.06l1.7,0h4l1.7,0h.06l1.69,0h.1l1.7-.07h0C60.77,31.75,67.54,30.15,67.54,24.7Z"/><path d="M25,33a19.16,19.16,0,0,0,38.21,0c-5.48,1.92-13.16,1.93-19.11,1.93S30.49,34.93,25,33Z"/><path d="M72.14,47.28a25.29,25.29,0,0,0-16.45,6.07H52a22.62,22.62,0,0,1-15.83,0H30a2.24,2.24,0,0,0-1.06,0c-14.57.51-22.52,7.93-23.1,16.16a7.93,7.93,0,0,0-.06,1V85.22H25.08V70.05a2.24,2.24,0,0,1,1.49-2.14,1.1,1.1,0,0,1,.26-.06.7.7,0,0,1,.14,0h.47a.8.8,0,0,1,.15,0,1.1,1.1,0,0,1,.26.06,2.26,2.26,0,0,1,1.49,2.14V85.22H50.12a25.36,25.36,0,1,0,22-37.94Zm15.8,41.18A22.36,22.36,0,1,1,94.5,72.65,22.19,22.19,0,0,1,87.94,88.46Z"/><path d="M84.43,58.68H70.33a2.5,2.5,0,0,0,0,5h14.1a2.5,2.5,0,0,0,0-5Z"/><path d="M84.43,70.14H70.33a2.5,2.5,0,0,0,0,5h14.1a2.5,2.5,0,0,0,0-5Z"/><path d="M84.43,81.6H70.33a2.5,2.5,0,0,0,0,5h14.1a2.5,2.5,0,0,0,0-5Z"/><path d="M59.38,59.41a2.5,2.5,0,0,0,1.77,4.27,2.5,2.5,0,0,0,1.77-4.27A2.59,2.59,0,0,0,59.38,59.41Z"/><path d="M63.46,71.68a3.55,3.55,0,0,0-.23-.43,2.43,2.43,0,0,0-.69-.69,2.64,2.64,0,0,0-.44-.23,2.44,2.44,0,0,0-.46-.14,2.31,2.31,0,0,0-1,0,2.43,2.43,0,0,0-.9.37,2.33,2.33,0,0,0-.38.31,2.72,2.72,0,0,0-.31.38,2.43,2.43,0,0,0-.37.9,2,2,0,0,0-.05.49,2.51,2.51,0,0,0,.73,1.77,2.33,2.33,0,0,0,.38.31,2.43,2.43,0,0,0,.9.37,2.63,2.63,0,0,0,.49,0,2.49,2.49,0,0,0,2.5-2.5,2.72,2.72,0,0,0,0-.49A2.54,2.54,0,0,0,63.46,71.68Z"/><path d="M59.38,82.33a2.51,2.51,0,0,0,0,3.54,2.55,2.55,0,0,0,1.77.73,2.5,2.5,0,0,0,1.76-4.27A2.59,2.59,0,0,0,59.38,82.33Z"/></g></svg>