<svg xmlns="http://www.w3.org/2000/svg" viewBox="0 0 100 100"><g id="Layer_1" data-name="Layer 1"><path d="M93.75,97.5V80.68a10.36,10.36,0,0,0-.07-1.12C93,70.17,84,61.7,67.31,61.12a2.61,2.61,0,0,0-1.21,0H59a25.88,25.88,0,0,1-18.08,0H33.9a2.61,2.61,0,0,0-1.21,0C16.05,61.7,7,70.17,6.32,79.56a10.36,10.36,0,0,0-.07,1.12V97.5h22V80.19A2.56,2.56,0,0,1,30,77.74a1.63,1.63,0,0,1,.3-.07l.16,0H31l.17,0a1.37,1.37,0,0,1,.29.07,2.56,2.56,0,0,1,1.7,2.45V97.5H66.87V80.19a2.56,2.56,0,0,1,1.7-2.45,1.37,1.37,0,0,1,.29-.07l.17,0h.54l.16,0a1.63,1.63,0,0,1,.3.07,2.56,2.56,0,0,1,1.7,2.45V97.5Z"/><path d="M26,21.22l-.3.44c-.12.19-.24.37-.35.56l-.27.44-.3.56c-.08.15-.16.29-.23.44s-.17.37-.25.56-.13.28-.19.43-.14.37-.2.56l-.15.41c-.06.19-.1.39-.15.58s-.07.25-.1.38-.07.41-.1.62,0,.21-.05.31a6.92,6.92,0,0,0-.06.9c0,6.23,7.73,8.06,18.42,8.54h0l1.95.07h.11l1.93,0h.07l1.94,0h4.6l1.94,0h.07l1.93,0h.11L58.3,37h0c10.69-.48,18.42-2.31,18.42-8.54a6.92,6.92,0,0,0-.06-.9c0-.1,0-.21-.05-.31s-.06-.41-.1-.62-.07-.26-.1-.38-.09-.39-.15-.58l-.15-.41c-.06-.19-.13-.37-.2-.56s-.13-.29-.19-.44l-.25-.55c-.07-.15-.15-.3-.23-.44l-.3-.55-.27-.45c-.11-.19-.23-.37-.35-.55l-.3-.45c-.07-.1-.12-.19-.19-.28v0c-.13-.18-.25-.36-.38-.53l-.15.88a25.21,25.21,0,0,1-1.2,4.14c-.2.53-.37.95-.51,1.25-.06.14-.12.26-.15.34l0,.1v0h0a1.36,1.36,0,0,1-1,.7,1.23,1.23,0,0,1-.26-.12,1.35,1.35,0,0,1-.28-1.87,8.52,8.52,0,0,0,1.06-6.79A13.15,13.15,0,0,0,71,17.33a21.08,21.08,0,0,0-2.68-4.88h0l0-.06-.38-.49-.36-.47c-.17-.22-.36-.43-.55-.65l-.36-.43L66,9.64l-.33-.34c-.34-.34-.69-.67-1.06-1h0v4.13a2.43,2.43,0,0,1-4.86,0V4.88h0a21.89,21.89,0,0,0-5.37-2c-.63-.14-1.27-.26-1.92-.34V7.57a2.43,2.43,0,0,1-4.86,0V2.5c-.65.08-1.29.2-1.92.34a21.89,21.89,0,0,0-5.37,2h0v7.55a2.43,2.43,0,1,1-4.86,0V8.3h0c-.37.33-.72.66-1.06,1L34,9.64l-.66.7c-.13.14-.24.29-.36.43s-.38.43-.55.65l-.36.47-.38.49,0,.06h0A21.08,21.08,0,0,0,29,17.33a13.15,13.15,0,0,0,.06,1.77,8.52,8.52,0,0,0,1.06,6.79,1.35,1.35,0,0,1-.28,1.87,1.23,1.23,0,0,1-.26.12,1.36,1.36,0,0,1-1-.7h0v0l-.05-.1c0-.08-.09-.2-.15-.34-.14-.3-.31-.72-.51-1.25a25.21,25.21,0,0,1-1.2-4.14l-.15-.88c-.13.17-.25.35-.38.53v0C26.08,21,26,21.13,26,21.22Z"/><path d="M28.19,37.9a21.87,21.87,0,0,0,43.62,0c-6.25,2.2-15,2.2-21.81,2.2S34.44,40.1,28.19,37.9Z"/></g></svg>