<svg xmlns="http://www.w3.org/2000/svg" viewBox="0 0 100 100"><g id="Layer_1" data-name="Layer 1"><path d="M78.13,47.16A18.91,18.91,0,0,0,65,79.75l-5.76,7L61.93,97.5,72.8,84.26a18.53,18.53,0,0,0,10.54,0L94.2,97.5l2.68-10.72-5.76-7a18.89,18.89,0,0,0-13-32.59Zm.13,31.75h-.18a12.93,12.93,0,0,1-12.94-12.8h0A13,13,0,1,1,78.26,78.91Z"/><path d="M91.56,2.5H8.44A5.94,5.94,0,0,0,2.5,8.44V79.21a5.94,5.94,0,0,0,5.94,5.94H53l1.72-2.08,2.76-3.38A24.76,24.76,0,0,1,97.5,50.62V8.44A5.94,5.94,0,0,0,91.56,2.5ZM17.05,46.63H46.73v8.1H17.05ZM47,74.12H17.34V69.37H47ZM83,38.22H17.05v-8.1H83Zm0-16.51H17.05v-8.1H83Z"/></g></svg>