<svg xmlns="http://www.w3.org/2000/svg" viewBox="0 0 100 100"><g id="Layer_1" data-name="Layer 1"><path d="M89.68,66.17l3-7.05-4.26-4.26-7,3c-.53-.24-1.12-.54-1.66-.77l-3-7H70.79l-3,7a8.35,8.35,0,0,0-1.66.77l-7.05-3-4.26,4.26,3,7.05a17.59,17.59,0,0,0-.77,1.66l-7,3v5.92l7,3a17.59,17.59,0,0,0,.77,1.66l-3,7,4.26,4.26,7.05-3c.53.24,1.07.54,1.66.77l3,7h5.92l3-7a16.5,16.5,0,0,0,1.66-.77l7,3,4.26-4.26-3-7c.24-.53.54-1.12.77-1.66l7-3V70.79l-7-3A9.89,9.89,0,0,0,89.68,66.17ZM73.75,82.57a8.88,8.88,0,1,1,8.88-8.88A8.86,8.86,0,0,1,73.75,82.57Z"/><circle cx="50" cy="23.3" r="20.8"/><path d="M8.8,65.52a10.26,10.26,0,0,0-.41,2.84V85.71H52.72l1.65-3.91-5.53-2.32L47,78.7V68.8L48.84,68l5.53-2.32-2.28-5.42-.78-1.86L52.74,57,57,52.74l1.42-1.43,1.86.78,5.42,2.28,2-4.82c-.42,0-.83-.07-1.26-.08a2.36,2.36,0,0,0-1.15,0H58.6a23.64,23.64,0,0,1-17.2,0H34.69a2.36,2.36,0,0,0-1.15,0C19,50,10.61,57.13,8.8,65.52Z"/></g></svg>