<svg xmlns="http://www.w3.org/2000/svg" viewBox="0 0 100 100"><g id="Layer_1" data-name="Layer 1"><path d="M59.18,34.87l-4.49,14A16,16,0,0,1,74.9,40.24c-3.26-2.92-8.53-5-13.77-6.3A1.72,1.72,0,0,0,59.18,34.87Z"/><circle cx="69.37" cy="55.31" r="14.06" transform="translate(-18.79 65.25) rotate(-45)"/><circle cx="30.63" cy="55.31" r="14.06" transform="translate(-11.89 8.52) rotate(-13.28)"/><path d="M58.76,85.77c0-6.32-8.56-10.52-17-12.58a1.73,1.73,0,0,0-1.95.92L34.05,91.35,32.53,79.24a1.76,1.76,0,0,1,.74-1.38c.87-.88.87-4.4,0-5.28-.29-.28-.84-.2-1.49-.11a7.12,7.12,0,0,1-1.15.11,7,7,0,0,1-1.15-.11c-.65-.09-1.21-.17-1.49.11-.88.88-.88,4.4,0,5.28.39.38.81.81.74,1.36L27.21,91.35,21.45,74.11a1.73,1.73,0,0,0-1.95-.92c-8.45,2.06-17,6.26-17,12.58V97.5H58.76Z"/><circle cx="50" cy="16.06" r="14.06"/><path d="M30.63,39.24a16.09,16.09,0,0,1,14.69,9.59l-4.5-14a1.72,1.72,0,0,0-2-.93c-5.24,1.28-10.51,3.38-13.77,6.3A16.14,16.14,0,0,1,30.63,39.24Z"/><path d="M80.5,73.19a1.73,1.73,0,0,0-2,.92L72.79,91.35,71.27,79.24c-.07-.55.35-1,.74-1.38.88-.88.88-4.4,0-5.28-.28-.28-.84-.2-1.49-.11a7,7,0,0,1-1.15.11,7.12,7.12,0,0,1-1.15-.11c-.65-.09-1.2-.17-1.49.11-.87.88-.87,4.4,0,5.28.39.38.81.81.74,1.36L66,91.35,60.19,74.11a1.73,1.73,0,0,0-1.95-.92A49.48,49.48,0,0,0,52.43,75c4.43,2.36,8.33,5.84,8.33,10.79V97.5H97.5V85.77C97.5,79.45,89,75.25,80.5,73.19Z"/><path d="M59.9,68.44a1.52,1.52,0,0,0,0-.21A16,16,0,0,1,53.63,52.1h0L51.9,40c-.07-.55.35-1,.74-1.38.88-.88.88-4.39,0-5.27-.28-.28-.84-.2-1.49-.11a6.07,6.07,0,0,1-2.3,0c-.65-.09-1.21-.17-1.49.11-.88.88-.88,4.39,0,5.27.39.39.81.82.74,1.36L46.37,52.11h0a16,16,0,0,1-6.24,16.13,1.52,1.52,0,0,0,0,.21,2.91,2.91,0,0,0,2.29,2.84h0A48.88,48.88,0,0,1,50,73.82a48.88,48.88,0,0,1,7.62-2.54h0A2.91,2.91,0,0,0,59.9,68.44Z"/></g></svg>