<svg xmlns="http://www.w3.org/2000/svg" viewBox="0 0 100 100"><g id="Layer_1" data-name="Layer 1"><path d="M53.09,3.14a4.76,4.76,0,0,0-6.18,0L30.28,17.39a4.75,4.75,0,0,0,3.09,8.36v19a4.75,4.75,0,0,0,4.75,4.75H61.87a4.75,4.75,0,0,0,4.75-4.75v-19a4.75,4.75,0,0,0,3.1-8.36Zm4,31.74a2.37,2.37,0,0,1-2.37,2.37h-9.5a2.38,2.38,0,0,1-2.38-2.37v-9.5A2.38,2.38,0,0,1,45.25,23h9.5a2.37,2.37,0,0,1,2.37,2.38Z"/><path d="M23.87,50a4.75,4.75,0,0,0-3.09,1.14L4.16,65.39a4.75,4.75,0,0,0,3.09,8.36v19A4.75,4.75,0,0,0,12,97.5H35.75a4.75,4.75,0,0,0,4.75-4.75v-19a4.75,4.75,0,0,0,3.09-8.36L27,51.14A4.75,4.75,0,0,0,23.87,50ZM31,73.38v9.5a2.37,2.37,0,0,1-2.38,2.37h-9.5a2.37,2.37,0,0,1-2.37-2.37v-9.5A2.37,2.37,0,0,1,19.12,71h9.5A2.37,2.37,0,0,1,31,73.38Z"/><path d="M64.25,97.5H88a4.75,4.75,0,0,0,4.75-4.75v-19a4.75,4.75,0,0,0,3.09-8.36L79.22,51.14a4.77,4.77,0,0,0-6.19,0L56.41,65.39a4.75,4.75,0,0,0,3.09,8.36v19A4.75,4.75,0,0,0,64.25,97.5ZM69,73.38A2.37,2.37,0,0,1,71.37,71h9.51a2.37,2.37,0,0,1,2.37,2.38v9.5a2.37,2.37,0,0,1-2.37,2.37H71.37A2.37,2.37,0,0,1,69,82.88Z"/></g></svg>