<svg xmlns="http://www.w3.org/2000/svg" viewBox="0 0 100 100"><g id="Layer_1" data-name="Layer 1"><path d="M95.55,74.54h-6V64.44A12.63,12.63,0,0,0,76.94,51.83H53.6V39.23H66a2.67,2.67,0,0,0,2.67-2.66V4.66A2.67,2.67,0,0,0,66,2H34.05a2.67,2.67,0,0,0-2.67,2.66V36.57a2.67,2.67,0,0,0,2.67,2.66H46.4v12.6H23.06a12.62,12.62,0,0,0-12.6,12.61v10.1h-6A2,2,0,0,0,2.5,76.49V95.55a2,2,0,0,0,2,2H23.51a2,2,0,0,0,1.95-2V76.49a2,2,0,0,0-1.95-1.95H17.66V64.44a5.4,5.4,0,0,1,5.4-5.4H46.4v15.5H40.47a2,2,0,0,0-1.95,1.95V95.55a2,2,0,0,0,1.95,2H59.53a2,2,0,0,0,1.95-2V76.49a2,2,0,0,0-1.95-1.95H53.6V59H76.94a5.4,5.4,0,0,1,5.4,5.4v10.1H76.48a1.94,1.94,0,0,0-1.94,1.95V95.55a1.94,1.94,0,0,0,1.94,2H95.55a2,2,0,0,0,2-2V76.49A2,2,0,0,0,95.55,74.54Z"/></g></svg>