<svg xmlns="http://www.w3.org/2000/svg" viewBox="0 0 100 100"><g id="Layer_1" data-name="Layer 1"><path d="M94.4,11.71H84.63V7.08a3.2,3.2,0,0,0-1.06-2.42c-5.26-4.68-11.34-1-11.34,4v3h-16V7.08a3.23,3.23,0,0,0-1.05-2.42C49.88,0,43.8,3.63,43.8,8.7v3h-16V7.08a3.24,3.24,0,0,0-1.05-2.42c-5.27-4.68-11.35-1-11.35,4v3H2.5V93H55.19L52.74,90.5l-1.43-1.42.78-1.86,2.28-5.42-5.53-2.32L47,78.7V68.8L48.84,68l5.53-2.32-2.28-5.42-.78-1.86L52.74,57,57,52.74l1.42-1.43,1.86.78,5.42,2.28L68,48.84,68.8,47h9.9l.78,1.84,2.32,5.53,5.42-2.28,1.86-.78,1.42,1.43L94.76,57l1.43,1.42-.78,1.86L93.13,65.7l4.37,1.83V14.81A3.1,3.1,0,0,0,94.4,11.71Zm-3.1,18H8.7V17.91h6.67v3.46a3.24,3.24,0,0,0,1.06,2.43c5.26,4.67,11.34,1,11.34-4.05V17.91h16v3.46a3.27,3.27,0,0,0,1.05,2.43c5.27,4.67,11.35,1,11.35-4.05V17.91h16v3.46a3.27,3.27,0,0,0,1,2.43c5.27,4.67,11.35,1,11.35-4.05V17.91H91.3Z"/><path d="M90.11,67c-.13-.28-.28-.56-.43-.83l1.23-2.91,1.73-4.14h0l-4.26-4.26-7,3c-.53-.24-1.12-.54-1.66-.77l-1.08-2.59L76.71,50H70.79l-1.88,4.46-1.08,2.59a4.5,4.5,0,0,0-.51.2,11.18,11.18,0,0,0-1.15.57l-7.05-3-4.26,4.26h0l1.73,4.14,1.23,2.91-.41.83c-.13.26-.24.53-.36.83l-7,3v5.92h0l7,3c.12.3.23.57.36.83l.41.83-1.48,3.53-1.48,3.52,4.26,4.26,7.05-3c.53.24,1.06.54,1.66.77l1,2.51h0l1.91,4.54h5.92L78.62,93h0l1-2.51.42-.18.68-.31c.19-.09.38-.18.56-.28l7,3,4.26-4.26-1.48-3.52-1.48-3.53.26-.57c.18-.36.36-.74.51-1.09l7-3h0V70.79l-7-3A8.07,8.07,0,0,0,90.11,67ZM73.75,82.57a8.88,8.88,0,0,1-7-14.36l.18-.23a8.9,8.9,0,0,1,13.62,0l.18.23a8.88,8.88,0,0,1-7,14.36Z"/></g></svg>